Coordinates
version=1
nRows=10
nColumns=40
inDegrees=yes

Units are S.I. units (second, meters, Newtons, ...)
Angles are in degrees.

endheader
time	pelvis_tilt	pelvis_list	pelvis_rotation	pelvis_tx	pelvis_ty	pelvis_tz	hip_flexion_r	hip_adduction_r	hip_rotation_r	knee_angle_r	knee_angle_r_beta	ankle_angle_r	subtalar_angle_r	mtp_angle_r	hip_flexion_l	hip_adduction_l	hip_rotation_l	knee_angle_l	knee_angle_l_beta	ankle_angle_l	subtalar_angle_l	mtp_angle_l	lumbar_extension	lumbar_bending	lumbar_rotation	arm_flex_r	arm_add_r	arm_rot_r	elbow_flex_r	pro_sup_r	wrist_flex_r	wrist_dev_r	arm_flex_l	arm_add_l	arm_rot_l	elbow_flex_l	pro_sup_l	wrist_flex_l	wrist_dev_l
     58.64900000	     -2.58131215	     -4.86863207	      4.51379628	      1.17425865	      0.91330149	      0.54604818	     17.22928337	      5.32323236	    -10.14087417	     29.71249795	     29.71249795	     17.16031170	     -8.66752062	     -2.29573829	     36.89427463	    -13.94324683	      6.40946864	     66.21813626	     66.21813626	      7.63084091	    -18.97484391	     11.67340905	    -12.50319126	      6.62863895	      1.41714770	     24.71502065	    -19.61559742	     -3.34423467	     47.45212235	     45.65942472	      0.00000000	      0.00000000	     -3.77442079	     -8.37014351	      5.88709348	     22.44995508	     45.38547070	      0.00000000	      0.00000000
     58.67050000	     -2.45843728	     -4.76413757	      5.17968043	      1.17380659	      0.91360354	      0.54712082	     16.77930023	      5.31826262	    -10.35427140	     29.60163498	     29.60163498	     17.34093087	     -9.10008180	     -2.03893064	     37.97308293	    -13.48129469	      6.50653212	     64.04224125	     64.04224125	      7.25978779	    -19.04451849	     12.31788176	    -12.51977258	      6.48091800	      1.70988135	     27.53856845	    -19.86282864	     -3.46169160	     49.72175854	     45.59715099	      0.00000000	      0.00000000	     -6.49534829	     -7.82267897	      6.34089917	     22.16097768	     45.22954349	      0.00000000	      0.00000000
     58.69200000	     -2.44399070	     -4.63035468	      5.83207803	      1.17319491	      0.91423799	      0.54785496	     16.37117155	      5.22323339	    -10.71416745	     29.36975771	     29.36975771	     17.69042819	     -9.21761526	     -1.09100474	     38.72072631	    -12.98230294	      6.45427356	     60.97581932	     60.97581932	      6.29360272	    -19.05689150	     12.20349839	    -12.46718192	      6.38418897	      2.27142599	     29.77105749	    -20.70516685	     -2.37971877	     53.40130037	     45.44553592	      0.00000000	      0.00000000	     -9.95604742	     -8.81173965	     14.95568214	     25.29974759	     43.64100677	      0.00000000	      0.00000000
     58.71350000	     -2.48901587	     -4.42568490	      6.45775536	      1.17260078	      0.91531426	      0.54824554	     15.84565650	      5.04851201	    -11.06141738	     28.80748376	     28.80748376	     17.66009412	     -9.31247383	     -1.01346577	     39.05204583	    -12.36644144	      6.32348776	     57.19821246	     57.19821246	      5.08704553	    -18.97302691	     12.42189292	    -12.32662574	      6.17081454	      2.44189609	     32.59206876	    -20.63189830	     -2.75991837	     55.86602957	     45.39006484	      0.00000000	      0.00000000	    -12.22527254	     -8.35055397	     15.21876781	     25.21309225	     43.57827038	      0.00000000	      0.00000000
     58.73500000	     -2.79129247	     -4.16915710	      7.02206531	      1.17175865	      0.91636650	      0.54832625	     15.53613503	      4.78236806	    -11.35540690	     28.11616867	     28.11616867	     17.56948055	     -9.34663545	     -0.86075377	     39.32732121	    -11.64182131	      6.16591013	     53.03612475	     53.03612475	      3.59930349	    -18.65408528	     13.04630549	    -11.89792628	      5.90550239	      3.15691299	     35.36294321	    -21.14148281	     -3.04215296	     57.55689512	     45.35732577	      0.00000000	      0.00000000	    -13.92829079	     -7.92315726	     15.36531783	     25.10253699	     43.52844939	      0.00000000	      0.00000000
     58.75650000	     -2.80564333	     -3.93813961	      7.62504939	      1.17119031	      0.91789496	      0.54821210	     14.82693835	      4.49776801	    -12.00247887	     27.33852999	     27.33852999	     17.46124018	     -8.85839761	     -1.12290049	     38.71799975	    -11.05041290	      5.94778276	     48.12065071	     48.12065071	      0.19577887	    -18.52204886	      8.86535912	    -11.99010931	      5.70558217	      2.96071601	     37.11834200	    -21.01360355	     -2.51910498	     63.67813294	     45.14461530	      0.00000000	      0.00000000	    -17.01424116	     -8.26625584	     16.22882985	     28.73307960	     43.35917665	      0.00000000	      0.00000000
     58.77800000	     -2.92193253	     -3.65962200	      8.09906628	      1.17050974	      0.91958137	      0.54787374	     14.12808797	      4.24644567	    -12.30448502	     26.35165787	     26.35165787	     17.30862340	     -8.68275193	     -0.95182514	     38.14436321	    -10.32150133	      5.92172046	     43.57643472	     43.57643472	     -1.66587412	    -17.76289635	      9.33669135	    -11.82614325	      5.44208138	      3.21930180	     39.86611170	    -20.79832002	     -2.55982010	     65.83879795	     45.08866449	      0.00000000	      0.00000000	    -18.42568720	     -7.96017105	     16.71590162	     28.78440090	     43.27860853	      0.00000000	      0.00000000
     58.79950000	     -3.11775062	     -3.49353345	      8.55095020	      1.16984394	      0.92075513	      0.54740850	     13.57591523	      4.00340186	    -12.95110792	     25.49001629	     25.49001629	     17.16176881	     -8.01264959	     -1.38697973	     37.48843280	     -9.84973485	      5.74120274	     39.06579281	     39.06579281	     -4.87966071	    -16.77597100	      5.63433072	    -11.70352333	      5.28488500	      3.47180317	     41.77483459	    -21.07856399	     -1.80564245	     70.85538340	     44.92661738	      0.00000000	      0.00000000	    -20.50354363	     -8.45851667	     18.80545170	     31.92658289	     43.01845301	      0.00000000	      0.00000000
     58.82100000	     -3.23059558	     -3.34182936	      8.93251700	      1.16927616	      0.92207223	      0.54685715	     12.86150431	      3.86436924	    -13.36596353	     24.47478268	     24.47478268	     16.94264714	     -7.56695913	     -1.69125759	     36.78178158	     -9.42075125	      5.64225564	     35.16163000	     35.16163000	     -7.00040224	    -15.19598085	      4.14853787	    -11.59370132	      5.15320758	      3.76837498	     43.96106120	    -20.96841246	     -1.56468122	     74.30898441	     44.85385790	      0.00000000	      0.00000000	    -21.76783343	     -8.91969657	     21.86760296	     33.73539162	     42.74947510	      0.00000000	      0.00000000
     58.84250000	     -3.36048381	     -3.22282303	      9.22622437	      1.16872773	      0.92322416	      0.54625716	     12.19834926	      3.77218278	    -13.71214874	     23.51443396	     23.51443396	     16.83214163	     -7.11053870	     -1.61708976	     36.24911367	     -9.09485639	      5.47955370	     32.09360511	     32.09360511	     -7.89034807	    -12.99422650	      4.60059379	    -11.46906085	      5.00415528	      3.84804266	     46.43298905	    -20.27651145	     -1.36773544	     76.64348070	     44.78945777	      0.00000000	      0.00000000	    -22.61938668	     -8.71087266	     22.54831445	     34.05169463	     42.69041426	      0.00000000	      0.00000000
